<?xml version="1.0" encoding="utf-8"?>
<!-- Generator: Adobe Illustrator 16.0.3, SVG Export Plug-In . SVG Version: 6.00 Build 0)  -->
<!DOCTYPE svg PUBLIC "-//W3C//DTD SVG 1.1//EN" "http://www.w3.org/Graphics/SVG/1.1/DTD/svg11.dtd">
<svg version="1.1" id="Layer_1" xmlns="http://www.w3.org/2000/svg" xmlns:xlink="http://www.w3.org/1999/xlink" x="0px" y="0px"
	 width="1335px" height="1335px" viewBox="0 0 1335 1335" enable-background="new 0 0 1335 1335" xml:space="preserve">
<g transform="translate(0.000000,1335.000000) scale(0.100000,-0.100000)">
	<path fill="#2E4A20" d="M6062.998,12754.999c-127.998-35-245.996-123.999-293.994-222.002c-34.004-70-38.008-186.997-9.004-265
		c47.998-128.999,184.004-226.997,345.996-250c147.002-20.996,327.002,23.003,417.002,102.002l37.998,32.998l-2.998,146.001
		l-2.998,146.001l-170-2.998c-92.998-1.001-194.004-5-222.998-8.003l-52.998-6.001l2.998-65.996l2.998-67.002l122.998,3.999
		l122.002,3.003V12251c0-50-0.996-53.003-35.996-67.002c-20-8.999-67.002-17.998-104.004-21.001
		c-202.998-16.997-339.004,156.001-254.004,325c61.006,123.003,250,170,392.002,98.003c30-15,57.002-26.001,62.002-23.999
		c4.004,1.997,27.998,27.998,54.004,58.999c50,62.998,50,61.997-21.006,97.998
		C6355.996,12767.997,6174.003,12783.998,6062.998,12754.999z"/>
	<path fill="#2E4A20" d="M6735.996,12598.998c-2.998-90-8.994-255-11.992-365l-7.002-201.001l87.002-7.998
		c47.998-3.999,90-3.999,92.998-1.001c5,3.999,28.994,318.999,32.998,421.001c0.996,23.999,15,2.998,69.004-105
		c35.996-73.999,80.996-167.002,97.998-206.001l32.002-71.001l52.998-6.997c47.998-7.002,55-5,72.998,16.997
		c10.996,13.003,74.004,93.003,140,177.002c82.001,105,120.996,147.002,122.001,133.999c2.002-10-12.002-108.999-30-218.999
		c-22.998-137.002-30-202.002-22.998-206.001c15-7.998,165.996-32.998,170-27.998c5,6.997,135.996,675,135.996,696.997
		c0,17.002-12.002,22.002-90,36.001c-49.004,8.999-110.996,18.999-137.002,22.002l-47.998,5l-80.996-103.003
		C7370,12531,7307.001,12449.999,7275,12406l-59.004-78.003l-12.998,28.003c-65.996,146.997-173.994,378.999-180,385
		c-5,5-68.994,11.001-143.994,15l-136.006,6.997L6735.996,12598.998z"/>
	<path fill="#2E4A20" d="M5400,12661c-100.996-20-95.996,11.997-40-268.003c22.002-107.998,37.998-197.998,35.996-200
		c-1.992-2.998-36.992,20-77.998,50c-95,70-227.998,158.003-352.998,235l-100,61.001l-92.002-26.001
		c-50.996-15-92.998-30.996-92.998-35.996c0-10,209.004-690,212.998-693.003c2.002-1.997,171.006,46.001,174.004,50
		c0.996,1.001-24.004,98.999-56.006,217.002c-31.992,117.998-56.992,216.001-55,217.998c5,6.001,231.006-146.001,369.004-247.998
		l130-97.002l90,16.001c79.004,13.999,90,17.998,87.998,35c-2.002,11.001-27.998,170-57.998,353.999
		c-30,183.003-55,337.002-55,342.002C5520,12682.997,5500.996,12681,5400,12661z"/>
	<path fill="#2E4A20" d="M7984.999,12587.997c-25-67.998-97.998-425-97.998-477.998c0-107.998,48.994-195,145-260
		c152.002-101.001,362.002-107.998,482.998-15c50.996,37.998,80.996,97.002,165.996,323.999
		c63.008,168.999,74.004,207.002,62.002,213.999c-28.994,17.002-182.998,65-185.996,59.004
		c-2.998-4.004-34.004-98.003-71.006-209.004c-72.998-217.998-91.992-255.996-145.996-283.999
		c-70.996-37.998-185-11.997-232.002,53.999c-40,56.001-35.996,117.002,26.006,346.001
		c30.996,113.003,53.994,207.002,51.992,208.999c-3.994,3.003-88.994,27.002-168.994,46.001
		C7999.003,12597.997,7987.997,12596,7984.999,12587.997z"/>
	<path fill="#2E4A20" d="M4355,12376c-55.996-21.001-90-38.999-89.004-47.002c2.002-18.999,245-651.997,255-662.998
		c7.002-8.003,42.002,1.997,156.006,45c22.002,7.998,22.002,7.998-26.006,146.001c-26.992,75.996-80.996,230.996-120.996,345.996
		c-40,114.004-75,207.002-79.004,206.001C4447.998,12408.998,4405,12393.998,4355,12376z"/>
	<path fill="#2E4A20" d="M4010.996,12237.001L3897.002,12186l-42.002-90c-22.998-50-64.004-143.999-90-208.999
		c-27.002-65-52.002-114.004-55.996-110c-4.004,3.999-35,60.996-69.004,125.996c-34.004,64.004-65.996,117.002-72.002,117.002
		c-5,0-47.998-21.001-93.994-47.002c-62.002-33.999-83.008-50.996-79.004-61.997c12.002-30,345.996-611.001,355-616.001
		c10.996-7.002,160,75,160,88.999c0,5-20,47.002-45,93.003l-45.996,83.999l20,51.997c15,41.001,22.998,52.002,40,50
		c10.996-1.997,91.992-32.998,178.994-70.996l159.004-68.003l90.996,41.001c50,22.002,92.998,42.998,96.006,46.001
		c5.996,6.001-208.008,116.001-359.004,182.998c-55,25-100.996,48.999-102.998,55c-4.004,11.001,28.994,90,118.994,283.999
		c38.008,82.002,68.008,151.001,67.002,152.002C4125.996,12286,4074.004,12264.999,4010.996,12237.001z"/>
	<path fill="#2E4A20" d="M8824.999,11954.999c-80.996-197.998-134.004-340-129.004-345c18.008-17.998,157.002-71.001,164.004-62.998
		c2.998,3.999,45.996,96.997,95,205.996c55,122.002,90.996,193.003,95.996,185c13.008-22.998,89.004-276.997,129.004-431.997
		c22.002-82.002,40-148.999,42.002-151.001c18.994-13.999,160-86.001,162.998-82.998c17.998,16.997,362.998,622.998,359.004,628.999
		c-5,8.999-167.002,98.999-177.002,98.999c-2.998,0-54.004-90-112.998-200c-59.004-110-110-197.002-114.004-192.998
		c-4.004,3.999-19.004,55-35,112.998c-27.998,106.001-140,452.002-155,480c-5,8.999-45.996,31.001-90.996,50
		c-46.006,18.999-86.006,36.001-89.004,37.998C8965.995,12288.998,8900.995,12139.999,8824.999,11954.999z"/>
	<path fill="#2E4A20" d="M10039.999,11532.997c0-5,29.004-37.998,65-72.998c99.004-97.998,187.998-220,352.002-485
		c248.994-401.001,340-525,547.998-742.997c145.996-154.004,435.996-402.002,470-402.002c17.998,0,15.996,25-12.002,135
		c-22.002,87.998-152.998,453.998-205.996,572.997c-179.004,405-575,761.001-1062.998,956.001
		C10094.003,11533.998,10039.999,11547.001,10039.999,11532.997z"/>
	<path fill="#2E4A20" d="M3011.001,11463.998c-183.003-56.997-345-136.997-508.999-251.997c-255-177.002-496.001-450-625-707.002
		c-78.003-156.001-163.003-423.999-197.002-622.001c-21.001-124-17.998-146.998,20-120c11.001,8.002,192.998,185,402.998,394.004
		c413.003,409.999,452.002,455.995,562.002,662.997c75,141.001,163.999,277.002,318.999,490
		c58.003,80,106.001,151.001,106.001,157.998C3090,11482.997,3067.998,11482.001,3011.001,11463.998z"/>
	<path fill="#2E4A20" d="M11269.999,10892.001c0-4.004,25.996-36.001,57.002-72.002c75-86.001,155-211.001,182.002-285
		c23.994-62.998,110.996-404.999,155.996-609.999c15-66.002,57.998-214,97.002-330c123.994-374.004,142.998-472.998,85.996-450
		c-7.002,2.998-40.996,47.002-75,97.998c-123.994,185-233.994,291-587.002,565c-273.994,212.002-390,322.002-463.994,437.002
		c-27.998,43.998-60,91-71.006,105l-20,25l-0.996-35c0-56.002,19.004-157.998,45.996-250
		c89.004-294,354.004-631.002,709.004-902.002c342.998-262.002,504.004-435.996,702.002-755.996
		c7.998-12.998,17.002-21.006,20-19.004c2.998,2.998,5.996,165,7.002,359.004c1.992,193.994,5.996,463.994,10.996,598.994
		c9.004,270.004,0.996,370.004-40,544.004c-50,212.002-119.004,355-295,607.001c-104.004,150-180,232.998-262.998,286.997
		C11437.997,10867.001,11269.999,10921,11269.999,10892.001z"/>
	<path fill="#2E4A20" d="M1725,10742.001c-101.001-54.004-158.999-96.001-247.998-181.001c-157.002-150-268.003-332.002-346.001-566
		c-65-196.002-73.999-277.002-62.002-560c8.003-172.002,8.003-355.996,1.001-645c-6.001-222.998-7.998-420-5-437.998
		c7.998-41.006,21.001-32.998,61.001,35.996c52.998,92.998,193.999,269.004,286.001,357.002c66.997,65,126.997,110,211.997,160
		c217.002,129.004,358.999,267.002,568.999,551c185,252.998,279.004,410,328.003,550c31.997,94,38.999,324,8.999,324
		c-3.999,0-40-44-78.999-97.002c-223.003-309-287.002-379-443.999-480.996c-265-173.004-432.002-343.004-611.001-622.002
		c-41.001-65-68.003-84.004-78.999-55.996C1308.999,9095,1355,9290.996,1415,9490c55,181,85,353.998,85,487.998
		c0,118.002,51.001,369.004,96.001,469.003c31.997,72.998,118.999,202.998,183.999,275.996
		C1842.002,10792.001,1827.998,10797.001,1725,10742.001z"/>
	<path fill="#2E4A20" d="M12250.995,9915c-0.996-11.002,10-55,24.004-97.998c14.004-43.004,35.996-134.004,50-201.002
		c22.998-111,25-147.002,25-361.996c0-232.002-10-428.008-30-604.004c-35.996-312.002-39.004-402.002-25-595.997
		c7.998-104.004,19.004-216.006,25-249.004c12.998-79.004,12.998-232.002,0-240c-19.004-12.002-37.998,14.004-50.996,67.998
		c-23.008,97.002-89.004,277.998-138.008,375c-80,159.004-140.996,232.999-515,627.002
		c-115,120.996-260.996,282.002-323.994,357.998c-62.998,75-117.002,137.002-120,137.002c-11.006,0,8.994-132.002,37.002-242.002
		c52.998-203.994,142.998-410,308.994-707.999c112.998-202.002,201.006-330,332.998-480
		c176.006-200.996,357.002-575,458.008-947.002c6.992-23.994,15.996-42.998,20.996-42.998s14.004,19.004,20,42.998
		c70.996,277.998,139.004,491.006,275,867.002c94.004,257.998,132.002,452.002,142.002,720c5.996,190.996-6.006,347.002-42.998,540
		c-54.004,285-104.004,449.004-194.004,635C12437.997,9703.998,12250.995,9971,12250.995,9915z"/>
	<path fill="#2E4A20" d="M832.998,9727.998C670,9481,522.998,9097.002,457.998,8750c-17.998-95-21.997-152.002-21.997-325
		c0-290,1.001-292.999,180-930c17.998-65.996,65-239.004,103.999-385c102.002-380.996,137.002-500,150-500
		c7.998,0,50,100,50,119.004c0,5,22.002,65,48.999,132.998c87.002,220,173.999,385,312.002,592.998
		c437.998,662.998,601.001,959.004,663.999,1210c27.002,105,41.001,252.998,31.001,310c-7.002,35.996-8.003,37.002-27.002,19.004
		c-11.001-10-32.998-43.008-50-73.008c-67.998-128.994-251.001-348.994-365-440.996c-166.001-135-273.999-255.996-365-412.002
		c-58.999-100.996-106.001-213.994-178.999-430c-33.999-102.998-67.998-188.994-75-190.996c-35-14.004-36.001,3.994-26.001,268.994
		c20,478.008,15,610-33.999,929.004c-36.001,240.996-47.998,380-47.998,590c0,157.998,3.999,207.002,21.997,292.998
		c18.003,85,56.001,222.002,78.003,279.004c2.998,6.996,0.996,12.998-4.004,12.998S866.001,9777.998,832.998,9727.998z"/>
	<path fill="#2E4A20" d="M6510.996,9510c-136.992-37.002-186.992-76.002-263.994-210c-37.002-64.004-101.006-115-160-130
		c-160-39.004-167.998-42.002-217.002-87.002c-122.002-110-175.996-342.998-120.996-522.998
		c30-97.998,63.994-164.004,176.992-347.002C6067.998,7984.003,6085,7945,6085,7835c0-112.998-20-160-102.002-240.996
		c-62.998-64.004-155-117.002-267.998-155c-60-21.006-89.004-24.004-200-24.004c-109.004,0.996-140,4.004-189.004,22.998
		c-90,32.998-157.998,77.998-266.992,177.002c-143.008,129.004-170,147.002-214.004,147.002c-65,0-70.996-12.998-115.996-261.006
		c-23.008-127.998-42.002-172.998-100-235.996c-57.002-62.002-116.006-87.002-220-92.998
		c-177.002-10-331.006,48.994-459.004,177.002c-87.998,87.998-135.996,170.996-174.004,305
		c-55,188.994-53.994,397.998,4.004,615.997c55.996,210,57.998,275,9.004,405.996c-27.002,72.002-120,210-198.008,296.006
		c-132.998,143.994-313.994,247.998-436.992,248.994c-74.004,1.006-118.003-22.998-146.006-78.994
		c-31.997-65-31.997-234.004,0-374.004c24.004-105,245-983.995,311.006-1237.999c21.992-85,60.996-234.004,85.996-330
		c45-172.002,182.998-692.001,212.002-800c7.998-30,25-95,37.998-145c32.998-127.002,127.002-470,182.998-669.004
		c40-145,50-170,70-176.992c32.002-12.002,5372.997-12.002,5404.999,0c26.006,10,57.998,115.996,237.002,780.996
		c39.004,145.996,84.004,312.002,100,370c122.998,445.996,470,1795,559.004,2170c63.994,269.004,46.992,425-51.006,475.996
		c-122.002,63.008-400.996-72.998-562.002-275C9459.003,8760,9397.997,8627.002,9397.997,8500c0-39.004,11.006-102.998,26.006-160
		c15-52.002,35.996-142.002,47.998-200c18.994-97.002,20-117.002,10-255c-12.998-182.002-27.002-240-92.002-370.996
		c-42.002-87.002-60.996-112.002-124.004-171.006c-125-117.002-265-172.998-430-172.998
		c-203.994,0.996-315.996,109.004-350.996,335.996c-20.996,130-42.998,215-62.002,237.002
		c-10.996,11.006-30.996,17.002-57.998,17.002c-44.004,0-50.996-5-250-180.996c-167.998-148.008-340.996-196.006-557.002-155
		c-188.994,35.996-352.998,147.998-415.996,285c-21.006,45.996-24.004,63.994-20,130c5.996,100,40,178.994,157.002,365.997
		c165.996,265,203.994,359.004,203.994,505c0,75.996-5.996,112.002-27.998,180c-55,169.004-144.004,249.004-305,275
		c-87.002,14.004-167.998,79.004-210.996,170.996c-33.008,70.004-106.006,128.002-197.002,158.002
		C6630.996,9530,6595.996,9532.002,6510.996,9510z"/>
	<path fill="#2E4A20" d="M12915.995,8017.998c-2.998-17.998-7.998-95.996-10.996-172.998
		c-10-232.998-47.998-457.002-115.996-685.996C12754.999,7045,12637.997,6750,12552.001,6565
		c-77.998-169.003-114.004-290-151.006-505c-35.996-212.998-67.998-352.002-85-375.996c-27.998-38.008-33.994-4.004-32.998,207.998
		c0,382.002-22.998,457.002-335.996,1082.001c-127.002,251.992-257.002,520.996-291.006,597.998c-33.994,77.002-65,140-70.996,140
		c-19.004-2.002-25.996-67.002-27.002-242.002c-0.996-139.004,2.998-199.004,20-290.996c41.006-225,114.004-500,274.004-1034.003
		c112.998-380,130.996-449.004,157.998-615c24.004-150.996,30-335,17.002-595l-7.002-160l40,44.004
		c55,58.994,265.996,356.992,532.998,750c270,397.998,394.004,785,457.998,1430.996c38.008,385.996,26.006,679.004-35,857.002
		c-32.998,95-76.992,192.998-86.992,192.998C12924.999,8050,12919.003,8035,12915.995,8017.998z"/>
	<path fill="#2E4A20" d="M252.998,7915c-16.997-32.998-50.996-192.002-75-355.996c-40.996-281.006-21.997-802.002,42.002-1156.005
		c47.998-267.002,175-562.002,362.998-842.998c88.003-132.002,200-284.004,243.003-330.996
		c42.998-47.002,192.998-246.006,297.998-396.006c82.002-117.998,85-115,61.001,52.002
		c-17.002,117.998-18.999,337.002-3.999,420.996c30,172.002,101.001,445,200,779.004c108.999,364.004,180,672.998,223.999,977.001
		c37.002,257.002,46.001,603.994,15,572.002c-5-5-35-72.002-67.998-149.004c-33.003-77.002-143.003-305.996-244.004-510
		c-145.996-295-192.998-399.004-230-515c-85-260-115.996-427.002-123.999-650c-2.998-74.004-6.997-145-10-157.002
		c-6.001-32.002-31.997-28.994-45,5c-17.998,44.004-66.001,231.006-121.001,467.002C716.001,6394.004,670,6530,581.001,6707.998
		c-143.003,286.006-240,604.004-285,930c-8.999,62.002-16.001,145-17.002,185c0,40-3.999,81.006-7.998,92.002
		C262.998,7934.003,262.998,7934.003,252.998,7915z"/>
	<path fill="#2E4A20" d="M2202.998,7280c-53.999-165.996-115-465-148.999-730c-21.997-170-25-625-6.001-810
		c25-232.002,97.002-570.996,168.003-794.004c331.001-1028.994,1121.001-2021.992,2029.995-2551.992
		C4820,2059.004,5477.998,1845,6190,1762.998c217.002-25,722.998-25,935,0c447.001,52.998,902.001,174.004,1270,340
		c500.996,225,745.996,371.006,1130,676.006c169.004,133.994,520.996,490,677.998,685.996
		c405,504.004,676.006,1022.998,867.002,1660c62.002,209.004,87.998,329.004,119.004,570c58.994,454.004,50,824.004-34.004,1310
		c-45,257.998-80.996,367.998-70,215c2.998-47.002,7.998-212.998,10.996-370c7.002-317.998-1.992-430-55.996-700
		c-115-567.998-330.996-1150-580.996-1565.996c-207.002-347.002-377.002-569.004-639.004-838.008
		c-380.996-390-717.998-636.992-1210-885C8144.003,2625,7674.003,2487.002,7105,2420c-145.996-17.998-582.002-24.004-770-10.996
		c-489.004,32.998-1027.002,165-1472.998,361.992c-892.002,393.008-1637.998,1065-2100,1889.004
		c-274.004,489.004-435,949.004-507.002,1445c-38.999,270-47.998,429.004-42.002,752.001c3.003,163.994,10,340,17.002,390.996
		C2246.001,7380,2237.998,7389.003,2202.998,7280z"/>
	<path fill="#2E4A20" d="M11632.001,6094.004c-22.002-42.002-102.002-316.006-136.006-469.004
		c-43.994-200-72.998-422.998-80.996-630c-2.998-87.998-12.998-235.996-20.996-330c-28.008-332.998-44.004-522.002-53.008-660
		c-12.998-182.998-62.998-380.996-165-652.998c-41.992-111.006-75.996-207.002-75.996-212.998c0-22.002,50,8.994,310,195
		c167.002,120,167.998,120.996,350.996,243.994c204.004,139.004,285,207.002,484.004,407.002
		c357.998,360.996,517.002,554.004,609.004,740c92.998,187.998,145.996,360.996,190.996,620c42.998,250.996,57.002,560,25.996,540
		c-5-2.002-15.996-37.002-25.996-77.002c-22.002-92.002-82.998-240-137.002-337.002c-27.002-46.992-82.002-115.996-147.002-185
		c-233.994-247.998-362.998-398.994-530.996-618.994c-90.996-119.004-89.004-116.006-312.998-447.002
		c-199.004-294.004-242.002-350-262.998-350c-26.006,0-22.002,37.002,20.996,170c30.996,97.998,72.998,242.002,109.004,370
		c21.992,79.004,45.996,235.996,45.996,297.998c0,57.998-32.998,299.004-110,812.002c-27.002,179.004-52.002,377.002-55.996,440
		c-4.004,62.998-10,124.004-14.004,135C11642.997,6114.004,11642.997,6114.004,11632.001,6094.004z"/>
	<path fill="#2E4A20" d="M1576.001,5967.998c-3.003-17.998-8.003-97.002-11.001-173.994c-3.999-100-15-184.004-36.001-285
		c-126.001-604.004-146.997-749.004-130-916.006c18.003-175,45-297.002,113.003-492.002c61.997-180.996,71.997-230.996,50-237.998
		c-26.001-8.994-192.002,202.002-340,432.998C1076.001,4522.002,1033.999,4575,840,4775c-232.998,240-353.999,399.004-492.998,650
		C300,5510.996,200,5720.996,200,5735c0,2.002-12.002,30-26.001,62.002c-21.997,48.994-26.997,55-33.999,37.998
		c-22.998-55-2.002-335.996,40-545.996c67.998-336.006,162.998-580,312.998-803.008
		c176.001-263.994,471.001-561.992,828.003-837.998C1767.002,3304.004,2090,3070,2120,3070c15,0,13.999,2.998-33.999,97.998
		C1997.998,3345,1937.998,3520.996,1905,3700c-13.999,77.002-18.999,189.004-25,580c-10,577.002-25,732.002-115,1130
		c-53.999,239.004-157.998,590-175,590C1585,6000,1578.999,5985,1576.001,5967.998z"/>
	<path fill="#2E4A20" d="M3917.998,5192.998c-10-2.002-20-17.998-22.998-37.002c-9.004-45.996-2.002-342.998,7.998-352.998
		c11.006-10.996,5402.997-10.996,5414.003,0c10.996,11.006,10.996,372.998,0,384.004C9307.997,5195,3950,5202.002,3917.998,5192.998
		z"/>
	<path fill="#2E4A20" d="M11049.003,4522.002c-141.006-195-202.002-291.006-287.002-447.002
		c-64.004-117.998-94.004-184.004-181.006-400c-30-72.998-88.994-310-140.996-570c-57.002-280-92.998-377.998-205-565.996
		c-80-135-250.996-395-322.998-494.004c-32.002-42.002-47.998-72.998-42.998-77.998c10-10,245.996,43.994,465.996,103.994
		c552.998,153.008,889.004,254.004,960.996,289.004c162.002,77.998,490,317.998,691.006,505
		c235.996,220.996,442.998,522.002,537.002,785c38.994,105.996,85.996,295,85.996,337.998c-0.996,45,4.004,50-109.004-122.998
		c-85-129.004-166.992-220-300.996-330.996c-237.998-197.002-457.998-338.008-755-484.004
		c-265.996-130.996-280-140.996-877.002-602.002c-55.996-43.994-90-58.994-103.994-47.002c-7.002,6.006-10,18.008-7.002,27.002
		c3.994,9.004,57.998,85,122.002,167.002c222.998,290.996,278.994,385.996,340,579.004c57.998,181.992,126.992,590,155.996,930.996
		c9.004,102.998,42.002,304.004,70,425.996c25.996,114.004,30,139.004,17.998,139.004
		C11157.997,4670,11107.001,4602.998,11049.003,4522.002z"/>
	<path fill="#2E4A20" d="M2053.999,4557.998c3.999-23.994,16.001-72.002,26.001-107.002c11.001-35,37.998-151.992,58.999-260
		C2175,4012.002,2187.998,3924.004,2220,3635c23.999-215.996,71.001-405,151.001-607.002
		C2437.002,2859.004,2550,2669.004,2680,2505.996c62.998-80,75-115.996,38.999-115.996c-22.998,0-113.999,59.004-433.999,280.996
		c-246.001,170-312.998,210-495,297.002c-236.001,112.002-487.002,266.006-670,411.006c-181.001,142.998-295,265-421.001,450.996
		c-53.999,80.996-63.999,90.996-66.997,70C627.998,3862.002,715,3600,775,3472.998C892.002,3225,993.999,3085,1223.999,2852.002
		c341.001-345,503.003-466.006,792.002-587.998c131.001-56.006,191.001-75,348.999-114.004c66.001-15.996,178.999-45.996,250-65.996
		c248.999-69.004,572.002-140,687.998-151.006c57.998-5,67.002-3.994,67.002,10c0,9.004-42.002,64.004-92.002,122.998
		c-203.994,233.008-305,386.006-341.997,514.004c-8.999,30-31.001,134.004-50,230c-62.002,312.998-156.001,585.996-353.999,1020
		C2368.999,4189.004,2315,4297.002,2250,4387.998C2193.999,4467.002,2073.999,4600,2057.998,4600
		C2051.001,4600,2050,4584.004,2053.999,4557.998z"/>
	<path fill="#2E4A20" d="M10207.997,3177.998c-228.994-178.994-693.994-650.996-918.994-932.998
		c-119.004-149.004-210-235.996-319.004-307.998C8882.001,1880,8552.997,1705.996,8502.997,1690c-60-19.004-275-115.996-275.996-125
		c-1.006-5.996,47.998-17.998,107.998-27.998c237.998-37.998,475.996-89.004,605-127.002c74.004-22.998,202.998-57.002,285-75.996
		c442.002-102.002,774.004-123.008,1045-68.008c480,98.008,1070,507.002,1287.002,894.004c40.996,70.996,75,160,62.998,160
		c-5,0-60-50-122.002-110.996c-120-118.008-238.994-205-335-243.008c-145-60-578.994-145.996-832.998-165.996
		c-160.996-12.998-567.998-57.002-660-70.996c-35-6.006-105-21.006-155-35c-295-80-494.004-87.002-455.996-15
		c5.996,10,90,50.996,195,95.996c240,100,320.996,147.998,420.996,249.004c94.004,93.994,117.002,128.994,189.004,297.998
		c28.994,67.998,120,255.996,200.996,417.998c194.004,387.002,234.004,480,205.996,480
		C10265.995,3220,10237.997,3200.996,10207.997,3177.998z"/>
	<path fill="#2E4A20" d="M2970,3124.004c0-9.004,25-59.004,55-112.002c30-54.004,82.002-164.004,115-247.002
		c157.002-387.998,305-637.002,485.996-820c122.002-122.998,158.008-145.996,325-205c63.008-22.998,140-52.998,171.006-67.002
		c77.998-35,92.998-82.998,25-82.998c-42.002,0-317.998,40.996-532.002,79.004c-205.996,36.992-447.998,65-735,85.996
		c-556.001,40.996-797.998,117.998-1120,359.004c-52.002,38.994-97.998,72.998-102.002,73.994c-20,9.004-2.998-30.996,50-115
		C1798.999,1927.002,1982.002,1732.002,2175,1575c417.002-340,1057.002-460,1725-325c97.002,20,395,102.002,595.996,164.004
		c61.006,18.994,205,53.994,320,76.992c115,23.008,213.008,46.006,218.008,50c11.992,11.006-80,53.008-286.006,130
		c-305.996,115-460,200-630.996,348.008c-105,90-167.998,162.998-252.998,290.996c-175,264.004-441.006,527.998-739.004,732.002
		C2982.998,3139.004,2970,3145.996,2970,3124.004z"/>
	<path fill="#2E4A20" d="M7155,1585c-107.002-19.004-257.002-62.002-392.998-112.002l-122.998-45.996L6597.001,1445
		c-209.004,85.996-322.002,117.002-500,135.996C5915,1600,5737.998,1570.996,5385,1465c-274.004-82.998-422.002-135-547.998-190.996
		c-111.006-50-139.004-65-417.002-220C4207.998,935,4162.001,917.002,3990,885c-390.996-72.998-547.998-80-712.998-30.996
		c-114.004,33.994-315,111.992-454.004,175.996c-60.996,27.002-117.998,50-126.997,50c-16.001,0-16.001-2.002,1.001-30.996
		c31.997-55,201.997-227.002,287.998-292.002C3162.998,624.004,3322.002,545.996,3534.004,490
		c386.992-104.004,771.992-77.998,1126.992,74.004c222.002,95,348.008,177.998,731.006,487.998
		C5630,1242.998,5805,1350.996,5935,1385c100,25.996,327.002,17.002,357.002-12.998c5.996-6.006,7.002-17.998,3.994-27.998
		c-3.994-11.006-128.994-101.006-278.994-201.006S5669.003,900,5575,825c-190.996-154.004-552.998-497.998-592.002-562.998
		l-25.996-42.998l23.994-25c44.004-46.006,221.006-175,237.002-172.002C5239.003,25.996,5347.001,150.996,5475,320
		c130.996,172.002,392.998,430,585,575.996c292.002,222.002,489.004,337.002,579.004,338.008
		c105,1.992,358.994-156.006,640.996-399.004c195-167.998,450.996-417.002,547.001-534.004
		C7940.995,162.998,8079.003,20,8099.003,20s205,170,208.994,192.002c6.006,32.002-92.002,140.996-347.002,385.996
		C7652.001,895,7592.001,940,7215,1164.004c-182.998,108.994-227.002,141.992-222.998,168.994
		c3.994,31.006,62.002,49.004,172.998,54.004c180,8.994,355-52.002,504.003-175c271.992-225,338.994-277.998,460.996-357.998
		c429.004-286.006,692.998-376.006,1087.998-375c445,0.996,755,102.998,1047.998,341.992c73.008,60,254.004,251.006,254.004,269.004
		c0,5.996-7.998,10-17.998,10c-24.004,0-229.004-67.998-417.002-137.002C9859.003,879.004,9819.003,870,9657.001,870
		c-166.006,0-196.006,7.002-412.998,94.004c-88.008,35-216.006,82.998-283.008,105c-196.992,65.996-445.996,175.996-678.994,300
		c-100,52.998-372.002,147.998-519.004,180C7542.001,1597.998,7302.001,1612.002,7155,1585z"/>
</g>
</svg>
